# xmcd CD database file
#
# Track frame offsets:
#	150
#	16431
#	28838
#	42320
#	59122
#	73517
#	83513
#	96076
#	110029
#	121836
#	137526
#	154853
#	174614
#	196406
#	206251
#	229114
#	249362
#	261774
#	285753
#	307267
#	330713
#
# Disc length: 4800 seconds
#
# Revision: 1
# Processed by: cddbd v1.5PL3 Copyright (c) Steve Scherf et al.
# Submitted via: Feurio! 1.67 - http://www.feurio.com
#
DISCID=2712be15
DTITLE=Various Artist - Gettin' Soulful - A Swingin' Compilation of Vampisoul Records 
DTITLE=Smash Hits
DYEAR=2003
DGENRE=R&B
TTITLE0=Eddie Bo and The Soul Finders - Hook and Sting
TTITLE1=Village Caller - Hector
TTITLE2=Willie Henderson - Break Your Back
TTITLE3=Joe Bataan - Chick-A-Boom
TTITLE4=Eastside Connection - You're So Right To Me
TTITLE5=Erma Franklin - Gotta Find Me A Lover (24 Hours...)
TTITLE6=Pete Rodriguez - Here Comes The Judge
TTITLE7=Sexteto Electronico Moderno - Muere Pequena
TTITLE8=Cal Tjader - Solar Heat
TTITLE9=Eddie Long - It Don't Make Sense But It Sure Sounds Good
TTITLE10=Candido - Take More Candi
TTITLE11=Lenni Sesar - Morris Park
TTITLE12=Sabu - The Oracle
TTITLE13=Orchestra Harlow - Mess Around
TTITLE14=Johnnie Colon - The Line Dance
TTITLE15=Armando Peraza - Viva Peraza
TTITLE16=Cachao - Es Diferente
TTITLE17=Fania All Stars - Viva Tirado
TTITLE18=Mongo Santamaria - The Good Doctor
TTITLE19=Irakere - 38 ½
TTITLE20=Cossa Nostra - Squeeze It Tight
EXTD=
EXTT0=
EXTT1=
EXTT2=
EXTT3=
EXTT4=
EXTT5=
EXTT6=
EXTT7=
EXTT8=
EXTT9=
EXTT10=
EXTT11=
EXTT12=
EXTT13=
EXTT14=
EXTT15=
EXTT16=
EXTT17=
EXTT18=
EXTT19=
EXTT20=
PLAYORDER=
